<?xml version="1.0" encoding="UTF-8" standalone="no"?>
<!-- Created with Inkscape (http://www.inkscape.org/) -->

<svg
   xmlns:dc="http://purl.org/dc/elements/1.1/"
   xmlns:cc="http://creativecommons.org/ns#"
   xmlns:rdf="http://www.w3.org/1999/02/22-rdf-syntax-ns#"
   xmlns:svg="http://www.w3.org/2000/svg"
   xmlns="http://www.w3.org/2000/svg"
   xmlns:sodipodi="http://sodipodi.sourceforge.net/DTD/sodipodi-0.dtd"
   xmlns:inkscape="http://www.inkscape.org/namespaces/inkscape"
   width="210mm"
   height="297mm"
   viewBox="0 0 210 297"
   version="1.1"
   id="svg8"
   inkscape:version="0.92.1 r15371"
   sodipodi:docname="cats.svg">
  <defs
     id="defs2" />
  <sodipodi:namedview
     id="base"
     pagecolor="#ffffff"
     bordercolor="#666666"
     borderopacity="1.0"
     inkscape:pageopacity="0.0"
     inkscape:pageshadow="2"
     inkscape:zoom="0.7"
     inkscape:cx="411.65565"
     inkscape:cy="639.746"
     inkscape:document-units="mm"
     inkscape:current-layer="layer1"
     showgrid="false"
     showguides="true"
     inkscape:window-width="1366"
     inkscape:window-height="705"
     inkscape:window-x="-8"
     inkscape:window-y="-8"
     inkscape:window-maximized="1"
     inkscape:snap-nodes="false" />
  <metadata
     id="metadata5">
    <rdf:RDF>
      <cc:Work
         rdf:about="">
        <dc:format>image/svg+xml</dc:format>
        <dc:type
           rdf:resource="http://purl.org/dc/dcmitype/StillImage" />
        <dc:title />
      </cc:Work>
    </rdf:RDF>
  </metadata>
  <g
     inkscape:label="Layer 1"
     inkscape:groupmode="layer"
     id="layer1">
    <g
       id="g4870">
      <g
         id="g4803"
         style="stroke-width:4;stroke-miterlimit:4;stroke-dasharray:none"
         transform="rotate(-21.092133,35.536285,11.43265)">
        <path
           sodipodi:nodetypes="sssss"
           inkscape:connector-curvature="0"
           id="path4797"
           d="m 28.503356,85.884596 c 0.737958,-2.019763 5.000717,-1.816895 4.499018,0.283482 -2.658341,11.129207 3.760476,18.260182 3.49628,21.151762 -0.197086,2.15708 -7.15696,2.25833 -7.995298,0.28348 -2.297023,-5.41101 -1.696871,-17.074453 0,-21.718724 z"
           style="opacity:1;fill:none;fill-opacity:1;stroke:#000000;stroke-width:4;stroke-linecap:round;stroke-linejoin:round;stroke-miterlimit:4;stroke-dasharray:none;stroke-opacity:1;paint-order:stroke fill markers" />
        <path
           style="opacity:1;fill:#f0f0f0;fill-opacity:1;stroke:none;stroke-width:4;stroke-linecap:round;stroke-linejoin:round;stroke-miterlimit:4;stroke-dasharray:none;stroke-opacity:1;paint-order:stroke fill markers"
           d="m 28.503356,85.884596 c 0.737958,-2.019763 5.000717,-1.816895 4.499018,0.283482 -2.658341,11.129207 3.760476,18.260182 3.49628,21.151762 -0.197086,2.15708 -7.15696,2.25833 -7.995298,0.28348 -2.297023,-5.41101 -1.696871,-17.074453 0,-21.718724 z"
           id="path4799"
           inkscape:connector-curvature="0"
           sodipodi:nodetypes="sssss" />
        <path
           id="path4801"
           transform="scale(0.26458333)"
           d="m 117.91211,317.5332 c -4.29722,-0.23853 -9.20266,1.54348 -10.65039,5.50586 -6.65786,18.22231 -9.012621,63.98418 0,85.21485 1.3451,3.16863 6.71561,4.95264 12.63672,5.40234 -0.27007,-0.3055 -0.51261,-0.62474 -0.69141,-0.9707 -11.03401,-21.34961 -12.18727,-69.0825 -6.70312,-88.53907 0.94903,-3.36696 4.28205,-5.46599 7.86328,-6.23046 -0.77396,-0.20571 -1.60122,-0.33542 -2.45508,-0.38282 z"
           style="opacity:1;fill:#000000;fill-opacity:0.45303865;stroke:none;stroke-width:15.11811066;stroke-linecap:round;stroke-linejoin:round;stroke-miterlimit:4;stroke-dasharray:none;stroke-opacity:1;paint-order:stroke fill markers"
           inkscape:connector-curvature="0" />
      </g>
      <g
         transform="translate(0.1889881,1.7008929)"
         id="g4829">
        <g
           id="g4819"
           style="stroke-width:4.97498226;stroke-miterlimit:4;stroke-dasharray:none"
           transform="matrix(0.83124766,-0.04899425,0.04567883,0.77499755,25.61031,33.266859)">
          <path
             sodipodi:nodetypes="sssss"
             inkscape:connector-curvature="0"
             id="path4813"
             d="m 28.503356,85.884596 c 0.737958,-2.019763 5.000717,-1.816895 4.499018,0.283482 -2.658341,11.129207 3.760476,18.260182 3.49628,21.151762 -0.197086,2.15708 -7.15696,2.25833 -7.995298,0.28348 -2.297023,-5.41101 -1.696871,-17.074453 0,-21.718724 z"
             style="opacity:1;fill:none;fill-opacity:1;stroke:#000000;stroke-width:4.97498226;stroke-linecap:round;stroke-linejoin:round;stroke-miterlimit:4;stroke-dasharray:none;stroke-opacity:1;paint-order:stroke fill markers" />
          <path
             style="opacity:1;fill:#f0f0f0;fill-opacity:1;stroke:none;stroke-width:4.97498226;stroke-linecap:round;stroke-linejoin:round;stroke-miterlimit:4;stroke-dasharray:none;stroke-opacity:1;paint-order:stroke fill markers"
             d="m 28.503356,85.884596 c 0.737958,-2.019763 5.000717,-1.816895 4.499018,0.283482 -2.658341,11.129207 3.760476,18.260182 3.49628,21.151762 -0.197086,2.15708 -7.15696,2.25833 -7.995298,0.28348 -2.297023,-5.41101 -1.696871,-17.074453 0,-21.718724 z"
             id="path4815"
             inkscape:connector-curvature="0"
             sodipodi:nodetypes="sssss" />
          <path
             id="path4817"
             transform="scale(0.26458333)"
             d="m 117.91211,317.5332 c -4.29722,-0.23853 -9.20266,1.54348 -10.65039,5.50586 -6.65786,18.22231 -9.012621,63.98418 0,85.21485 1.3451,3.16863 6.71561,4.95264 12.63672,5.40234 -0.27007,-0.3055 -0.51261,-0.62474 -0.69141,-0.9707 -11.03401,-21.34961 -12.18727,-69.0825 -6.70312,-88.53907 0.94903,-3.36696 4.28205,-5.46599 7.86328,-6.23046 -0.77396,-0.20571 -1.60122,-0.33542 -2.45508,-0.38282 z"
             style="opacity:1;fill:#000000;fill-opacity:0.45303865;stroke:none;stroke-width:18.80308533;stroke-linecap:round;stroke-linejoin:round;stroke-miterlimit:4;stroke-dasharray:none;stroke-opacity:1;paint-order:stroke fill markers"
             inkscape:connector-curvature="0" />
        </g>
        <g
           transform="matrix(0.83124766,-0.04899425,0.04567883,0.77499755,8.3057077,35.755114)"
           style="stroke-width:4.97498226;stroke-miterlimit:4;stroke-dasharray:none"
           id="g4811">
          <path
             style="opacity:1;fill:none;fill-opacity:1;stroke:#000000;stroke-width:4.97498226;stroke-linecap:round;stroke-linejoin:round;stroke-miterlimit:4;stroke-dasharray:none;stroke-opacity:1;paint-order:stroke fill markers"
             d="m 28.503356,85.884596 c 0.737958,-2.019763 5.000717,-1.816895 4.499018,0.283482 -2.658341,11.129207 3.760476,18.260182 3.49628,21.151762 -0.197086,2.15708 -7.15696,2.25833 -7.995298,0.28348 -2.297023,-5.41101 -1.696871,-17.074453 0,-21.718724 z"
             id="path4805"
             inkscape:connector-curvature="0"
             sodipodi:nodetypes="sssss" />
          <path
             sodipodi:nodetypes="sssss"
             inkscape:connector-curvature="0"
             id="path4807"
             d="m 28.503356,85.884596 c 0.737958,-2.019763 5.000717,-1.816895 4.499018,0.283482 -2.658341,11.129207 3.760476,18.260182 3.49628,21.151762 -0.197086,2.15708 -7.15696,2.25833 -7.995298,0.28348 -2.297023,-5.41101 -1.696871,-17.074453 0,-21.718724 z"
             style="opacity:1;fill:#f0f0f0;fill-opacity:1;stroke:none;stroke-width:4.97498226;stroke-linecap:round;stroke-linejoin:round;stroke-miterlimit:4;stroke-dasharray:none;stroke-opacity:1;paint-order:stroke fill markers" />
          <path
             inkscape:connector-curvature="0"
             style="opacity:1;fill:#000000;fill-opacity:0.45303865;stroke:none;stroke-width:18.80308533;stroke-linecap:round;stroke-linejoin:round;stroke-miterlimit:4;stroke-dasharray:none;stroke-opacity:1;paint-order:stroke fill markers"
             d="m 117.91211,317.5332 c -4.29722,-0.23853 -9.20266,1.54348 -10.65039,5.50586 -6.65786,18.22231 -9.012621,63.98418 0,85.21485 1.3451,3.16863 6.71561,4.95264 12.63672,5.40234 -0.27007,-0.3055 -0.51261,-0.62474 -0.69141,-0.9707 -11.03401,-21.34961 -12.18727,-69.0825 -6.70312,-88.53907 0.94903,-3.36696 4.28205,-5.46599 7.86328,-6.23046 -0.77396,-0.20571 -1.60122,-0.33542 -2.45508,-0.38282 z"
             transform="scale(0.26458333)"
             id="path4809" />
        </g>
      </g>
      <g
         id="g4678">
        <path
           style="opacity:1;fill:#d8d8d8;fill-opacity:1;stroke:#000000;stroke-width:5;stroke-linecap:round;stroke-linejoin:round;stroke-miterlimit:4;stroke-dasharray:none;stroke-opacity:1;paint-order:stroke fill markers"
           d="m 35.381485,79.883273 c 4.189149,-3.161449 16.061415,-3.856142 20.75717,-1.565649 5.632726,2.747526 10.939901,23.388876 3.732122,26.050216 -6.763724,2.49738 -20.821198,3.26468 -22.800878,1.71979 -6.86677,-5.35865 -5.158528,-23.585547 -1.688414,-26.204357 z"
           id="rect4490"
           inkscape:connector-curvature="0"
           sodipodi:nodetypes="sssss" />
        <path
           style="opacity:1;fill:#ffffff;fill-opacity:1;stroke:none;stroke-width:18.89763832;stroke-linecap:round;stroke-linejoin:round;stroke-miterlimit:4;stroke-dasharray:none;stroke-opacity:1;paint-order:stroke fill markers"
           d="M 183.35742 294.52148 C 180.29826 294.9935 177.22443 295.43015 174.13281 295.82227 C 159.22868 302.20945 151.41328 328.61401 154.40625 349.41797 C 157.68465 372.20584 172.68472 379.63268 190.45508 377.07617 C 208.22544 374.5196 222.03817 362.94803 218.75977 340.16016 C 215.77376 319.40465 199.63875 296.50997 183.35742 294.52148 z "
           transform="scale(0.26458333)"
           id="path4844" />
      </g>
      <g
         id="g4674">
        <g
           id="g4631">
          <g
             id="g4604">
            <g
               id="g4740"
               transform="translate(0.56696429,3.7797619)">
              <path
                 sodipodi:nodetypes="ccc"
                 inkscape:connector-curvature="0"
                 id="path4497"
                 d="M 65.101092,39.098411 C 63.010251,28.795187 63.56742,16.73668 49.98085,11.192099 c -6.138057,6.503892 -4.461697,15.34918 -2.727755,24.080535"
                 style="fill:#d8d8d8;fill-opacity:1;stroke:#000000;stroke-width:2.70000005;stroke-linecap:butt;stroke-linejoin:round;stroke-miterlimit:4;stroke-dasharray:none;stroke-opacity:1" />
              <g
                 style="stroke-width:1.13675761"
                 transform="matrix(0.85858414,0.17468283,-0.17316837,0.866093,38.76432,-4.2936892)"
                 id="g4714">
                <path
                   sodipodi:nodetypes="cccc"
                   inkscape:connector-curvature="0"
                   id="path4708"
                   d="m 19.251217,22.060689 c -1.852619,5.686937 0.369615,11.132613 2.17704,16.602849 4.568258,-2.888551 5.905907,-5.993883 7.200987,-9.10207 -2.501813,-4.88767 -5.763273,-6.869863 -9.378027,-7.500779 z"
                   style="fill:#ff6a6a;fill-opacity:1;stroke:#000000;stroke-width:1.93248808;stroke-linecap:round;stroke-linejoin:round;stroke-miterlimit:4;stroke-dasharray:none;stroke-opacity:1" />
                <path
                   inkscape:connector-curvature="0"
                   id="path4710"
                   d="m 19.651925,22.060669 c -1.852619,5.686936 0.369704,11.132884 2.177128,16.603121 0.708727,-0.448136 1.331926,-0.901835 1.897042,-1.359607 -2.043571,-4.841518 -3.93581,-9.703051 -2.845821,-14.968596 -0.404525,-0.110198 -0.813924,-0.202585 -1.228349,-0.274918 z"
                   style="fill:#dd4545;fill-opacity:1;stroke:none;stroke-width:1.93248808;stroke-linecap:round;stroke-linejoin:round;stroke-miterlimit:4;stroke-dasharray:none;stroke-opacity:1" />
                <path
                   style="fill:none;fill-opacity:1;stroke:#000000;stroke-width:1.93248808;stroke-linecap:round;stroke-linejoin:round;stroke-miterlimit:4;stroke-dasharray:none;stroke-opacity:1"
                   d="m 19.251217,22.060689 c -1.852619,5.686937 0.369615,11.132613 2.17704,16.602849 4.568258,-2.888551 5.905907,-5.993883 7.200987,-9.10207 -2.501813,-4.88767 -5.763273,-6.869863 -9.378027,-7.500779 z"
                   id="path4712"
                   inkscape:connector-curvature="0"
                   sodipodi:nodetypes="cccc" />
              </g>
            </g>
            <g
               id="g4555">
              <g
                 id="g4543">
                <path
                   style="opacity:1;fill:#f0f0f0;fill-opacity:1;stroke:#000000;stroke-width:5;stroke-linecap:round;stroke-linejoin:round;stroke-miterlimit:4;stroke-dasharray:none;stroke-opacity:1;paint-order:stroke fill markers"
                   d="m 24.417785,34.779398 c 10.103252,-5.357107 28.995389,-6.975404 37.478961,-0.11103 9.043073,7.317086 16.150826,32.437954 6.70068,38.663449 C 57.276554,80.789696 25.278944,84.294325 17.97658,73.481778 10.670218,62.663311 17.179675,38.617304 24.417785,34.779398 Z"
                   id="rect4485"
                   inkscape:connector-curvature="0"
                   sodipodi:nodetypes="sssss" />
                <g
                   id="g4722"
                   transform="matrix(1,0,0,0.93983405,0,4.8322097)"
                   style="stroke-width:1.03151226">
                  <path
                     id="path4691"
                     transform="scale(0.26458333)"
                     d="m 74.900391,195.83203 c -0.964069,0.002 -1.940471,0.042 -2.927735,0.125 l -3.283203,12.12109 c 7.208961,-3.21187 14.761499,-6.27539 25.253906,-8.08007 -6.086091,-2.30574 -12.294485,-4.17866 -19.042968,-4.16602 z m 6.669921,16.98242 c -4.798224,0.0426 -9.596305,0.73674 -14.394531,1.83008 l -2.021484,13.38477 c 9.059758,-7.10012 19.881752,-10.23608 30.810547,-13.13086 -4.798226,-1.51637 -9.596307,-2.12661 -14.394532,-2.08399 z"
                     style="fill:#d8d8d8;fill-opacity:1;stroke:none;stroke-width:1.03151226px;stroke-linecap:butt;stroke-linejoin:miter;stroke-opacity:1"
                     inkscape:connector-curvature="0" />
                  <path
                     id="path4682"
                     transform="scale(0.26458333)"
                     d="m 132.83594,112.36719 -10.10156,7.07031 c 5.73751,5.11497 7.26522,16.54304 9.08984,27.52734 5.45288,-14.96336 3.48778,-24.91388 1.01172,-34.59765 z m -13.89063,5.05078 -11.36328,9.84961 c 5.83722,6.7648 7.51194,18.158 10.10156,28.53515 4.53597,-16.4531 2.57061,-27.12708 1.26172,-38.38476 z m -10.60742,11.86914 -10.099609,11.61719 c 5.629199,7.48811 6.516709,20.66492 9.089839,31.82031 2.22496,-18.7274 1.35234,-30.48705 1.00977,-43.4375 z m -12.373046,14.90039 -7.828125,7.07031 c 4.029377,5.02611 5.46049,13.0924 7.576172,20.70899 1.201995,-9.4833 2.342334,-18.95448 0.251953,-27.7793 z"
                     style="fill:#d8d8d8;fill-opacity:1;stroke:none;stroke-width:1.03151226px;stroke-linecap:butt;stroke-linejoin:miter;stroke-opacity:1"
                     inkscape:connector-curvature="0" />
                  <path
                     id="path4669"
                     transform="scale(0.26458333)"
                     d="m 170.39258,101.6875 c -28.15725,0.0978 -57.81941,7.29915 -78.105471,18.74414 -27.356636,15.43408 -51.958346,112.13433 -24.34375,155.64063 0.738342,1.16324 1.557127,2.27774 2.425782,3.35937 -11.00089,-56.00941 14.556464,-135.53525 42.435549,-150.42773 25.14088,-13.42978 61.92791,-21.86571 96.81445,-21.93946 -11.84357,-3.74444 -25.35067,-5.42515 -39.22656,-5.37695 z"
                     style="opacity:1;fill:#d8d8d8;fill-opacity:1;stroke:none;stroke-width:19.4931469;stroke-linecap:round;stroke-linejoin:round;stroke-miterlimit:4;stroke-dasharray:none;stroke-opacity:1;paint-order:stroke fill markers"
                     inkscape:connector-curvature="0" />
                </g>
              </g>
              <g
                 style="stroke-width:1.14895141;stroke-miterlimit:4;stroke-dasharray:none"
                 transform="matrix(1.3014078,0,0,1.3096817,-11.701012,-5.0317398)"
                 id="g4581">
                <path
                   style="fill:none;stroke:#000000;stroke-width:1.14895141;stroke-linecap:round;stroke-linejoin:miter;stroke-miterlimit:4;stroke-dasharray:none;stroke-opacity:1;paint-order:stroke fill markers"
                   d="m 39.555889,26.523237 c 1.970149,1.512492 3.888332,3.232843 5.158143,7.546683"
                   id="path4564"
                   inkscape:connector-curvature="0"
                   sodipodi:nodetypes="cc" />
                <path
                   sodipodi:nodetypes="cc"
                   inkscape:connector-curvature="0"
                   id="path4566"
                   d="m 36.260596,27.022882 c 1.521867,0.909361 3.024474,1.970785 4.286775,4.929525"
                   style="fill:none;stroke:#000000;stroke-width:1.14895141;stroke-linecap:round;stroke-linejoin:miter;stroke-miterlimit:4;stroke-dasharray:none;stroke-opacity:1;paint-order:stroke fill markers" />
                <path
                   style="fill:none;stroke:#000000;stroke-width:1.14895141;stroke-linecap:round;stroke-linejoin:miter;stroke-miterlimit:4;stroke-dasharray:none;stroke-opacity:1;paint-order:stroke fill markers"
                   d="m 42.006891,26.354709 c 1.521867,0.909361 3.024474,1.970785 4.286775,4.929525"
                   id="path4568"
                   inkscape:connector-curvature="0"
                   sodipodi:nodetypes="cc" />
              </g>
            </g>
          </g>
          <g
             transform="translate(-0.78559597,3.542136)"
             id="g4733">
            <path
               style="fill:#d8d8d8;fill-opacity:1;stroke:none;stroke-width:2.70000005;stroke-linecap:round;stroke-linejoin:round;stroke-miterlimit:4;stroke-dasharray:none;stroke-opacity:1"
               d="M 34.773809,29.865328 C 30.733781,22.196381 25.550695,15.978238 15.024553,16.541666 12.79699,26.51241 13.508358,36.27323 18.331845,45.740327"
               id="path4662"
               inkscape:connector-curvature="0"
               sodipodi:nodetypes="ccc" />
            <g
               id="g4706">
              <path
                 sodipodi:nodetypes="cccc"
                 inkscape:connector-curvature="0"
                 id="path4658"
                 d="m 19.251217,22.060689 c -1.852619,5.686937 0.369615,11.132613 2.17704,16.602849 4.568258,-2.888551 5.905907,-5.993883 7.200987,-9.10207 -2.501813,-4.88767 -5.763273,-6.869863 -9.378027,-7.500779 z"
                 style="fill:#ff6a6a;fill-opacity:1;stroke:#000000;stroke-width:1.70000005;stroke-linecap:round;stroke-linejoin:round;stroke-miterlimit:4;stroke-dasharray:none;stroke-opacity:1" />
              <path
                 inkscape:connector-curvature="0"
                 id="path4696"
                 d="m 19.651925,22.060669 c -1.852619,5.686936 0.369704,11.132884 2.177128,16.603121 0.708727,-0.448136 1.331926,-0.901835 1.897042,-1.359607 -2.043571,-4.841518 -3.93581,-9.703051 -2.845821,-14.968596 -0.404525,-0.110198 -0.813924,-0.202585 -1.228349,-0.274918 z"
                 style="fill:#dd4545;fill-opacity:1;stroke:none;stroke-width:1.70000005;stroke-linecap:round;stroke-linejoin:round;stroke-miterlimit:4;stroke-dasharray:none;stroke-opacity:1" />
              <path
                 style="fill:none;fill-opacity:1;stroke:#000000;stroke-width:1.70000005;stroke-linecap:round;stroke-linejoin:round;stroke-miterlimit:4;stroke-dasharray:none;stroke-opacity:1"
                 d="m 19.251217,22.060689 c -1.852619,5.686937 0.369615,11.132613 2.17704,16.602849 4.568258,-2.888551 5.905907,-5.993883 7.200987,-9.10207 -2.501813,-4.88767 -5.763273,-6.869863 -9.378027,-7.500779 z"
                 id="path4701"
                 inkscape:connector-curvature="0"
                 sodipodi:nodetypes="cccc" />
            </g>
            <path
               sodipodi:nodetypes="ccc"
               inkscape:connector-curvature="0"
               id="path4660"
               d="M 34.773809,29.865328 C 30.733781,22.196381 25.550695,15.978238 15.024553,16.541666 12.79699,26.51241 13.508358,36.27323 18.331845,45.740327"
               style="display:inline;fill:none;stroke:#000000;stroke-width:2.70000005;stroke-linecap:round;stroke-linejoin:round;stroke-miterlimit:4;stroke-dasharray:none;stroke-opacity:1" />
          </g>
        </g>
        <g
           id="g4637"
           transform="matrix(0.79114202,0,0,0.78092783,10.573996,13.297221)"
           style="stroke-width:1.27223492">
          <g
             style="stroke-width:1.16179824"
             transform="matrix(1.1132973,-0.10508093,0.10076805,1.0676037,-8.3506951,4.1694123)"
             id="g4621">
            <circle
               style="opacity:1;fill:#000000;fill-opacity:1;stroke:none;stroke-width:3.13685536;stroke-linecap:round;stroke-linejoin:round;stroke-miterlimit:4;stroke-dasharray:none;stroke-opacity:1;paint-order:stroke fill markers"
               id="path4615"
               cx="39.021351"
               cy="55.254711"
               r="2.5390606" />
            <path
               style="fill:none;stroke:#000000;stroke-width:1.74269736;stroke-linecap:round;stroke-linejoin:miter;stroke-miterlimit:4;stroke-dasharray:none;stroke-opacity:1"
               d="M 42.227518,52.516097 36.282906,49.641149"
               id="path4617"
               inkscape:connector-curvature="0" />
          </g>
          <g
             id="g4627"
             transform="matrix(-0.99557508,0.09396948,0.09396948,0.99557508,94.404763,-2.2226183)"
             style="stroke-width:1.27223492">
            <circle
               r="2.5390606"
               cy="55.254711"
               cx="39.021351"
               id="circle4623"
               style="opacity:1;fill:#000000;fill-opacity:1;stroke:none;stroke-width:3.43503451;stroke-linecap:round;stroke-linejoin:round;stroke-miterlimit:4;stroke-dasharray:none;stroke-opacity:1;paint-order:stroke fill markers" />
            <path
               inkscape:connector-curvature="0"
               id="path4625"
               d="M 42.227518,52.516097 36.282906,49.641149"
               style="fill:none;stroke:#000000;stroke-width:1.90835238;stroke-linecap:round;stroke-linejoin:miter;stroke-miterlimit:4;stroke-dasharray:none;stroke-opacity:1" />
          </g>
        </g>
        <g
           id="g4680"
           transform="rotate(-2.3521953,38.314719,68.953062)">
          <g
             style="stroke-width:2.13960242;stroke-miterlimit:4;stroke-dasharray:none"
             transform="matrix(-0.90548045,0.24063508,0.24144195,0.90080797,73.790436,-4.437829)"
             id="g4528">
            <path
               sodipodi:nodetypes="cc"
               inkscape:connector-curvature="0"
               id="path4524"
               d="m 53.053,64.742779 c 6.79383,-3.801205 16.645519,-6.351468 31.270535,-6.949006"
               style="fill:none;stroke:#000000;stroke-width:2.13960242;stroke-linecap:round;stroke-linejoin:miter;stroke-miterlimit:4;stroke-dasharray:none;stroke-opacity:1" />
            <path
               style="fill:none;stroke:#000000;stroke-width:2.13960242;stroke-linecap:round;stroke-linejoin:miter;stroke-miterlimit:4;stroke-dasharray:none;stroke-opacity:1"
               d="m 53.710308,67.659445 c 7.591607,-1.72418 17.762329,-1.383529 31.959056,2.18033"
               id="path4526"
               inkscape:connector-curvature="0"
               sodipodi:nodetypes="cc" />
          </g>
          <g
             id="g4540"
             transform="matrix(0.88697679,0.07956509,-0.08049695,0.87670887,20.908127,2.1133719)"
             style="stroke-width:2.25873327;stroke-miterlimit:4;stroke-dasharray:none">
            <path
               style="fill:none;stroke:#000000;stroke-width:2.25873327;stroke-linecap:round;stroke-linejoin:miter;stroke-miterlimit:4;stroke-dasharray:none;stroke-opacity:1"
               d="m 53.053,64.742779 c 6.79383,-3.801205 16.645519,-6.351468 31.270535,-6.949006"
               id="path4536"
               inkscape:connector-curvature="0"
               sodipodi:nodetypes="cc" />
            <path
               sodipodi:nodetypes="cc"
               inkscape:connector-curvature="0"
               id="path4538"
               d="m 53.710308,67.659445 c 7.591607,-1.72418 17.762329,-1.383529 31.959056,2.18033"
               style="fill:none;stroke:#000000;stroke-width:2.25873327;stroke-linecap:round;stroke-linejoin:miter;stroke-miterlimit:4;stroke-dasharray:none;stroke-opacity:1" />
          </g>
        </g>
        <path
           style="opacity:1;fill:#e05151;fill-opacity:1;stroke:#000000;stroke-width:3;stroke-linecap:round;stroke-linejoin:round;stroke-miterlimit:4;stroke-dasharray:none;stroke-opacity:1;paint-order:stroke fill markers"
           d="m 56.302569,68.321231 c 0.344094,1.308097 -0.621386,3.717427 -2.471661,4.183127 -1.850275,0.465701 -3.884683,-1.18858 -4.228777,-2.496677 -0.344093,-1.308097 1.132428,-1.774662 2.982703,-2.240363 1.850275,-0.4657 3.373642,-0.754185 3.717735,0.553913 z"
           id="path4716"
           inkscape:connector-curvature="0"
           sodipodi:nodetypes="sssss" />
      </g>
      <g
         transform="translate(-0.44954214,-1.0137248)"
         style="stroke-width:4;stroke-miterlimit:4;stroke-dasharray:none"
         id="g4795">
        <path
           style="opacity:1;fill:none;fill-opacity:1;stroke:#000000;stroke-width:4;stroke-linecap:round;stroke-linejoin:round;stroke-miterlimit:4;stroke-dasharray:none;stroke-opacity:1;paint-order:stroke fill markers"
           d="m 28.503356,85.884596 c 0.737958,-2.019763 5.000717,-1.816895 4.499018,0.283482 -2.658341,11.129207 3.760476,18.260182 3.49628,21.151762 -0.197086,2.15708 -7.15696,2.25833 -7.995298,0.28348 -2.297023,-5.41101 -1.696871,-17.074453 0,-21.718724 z"
           id="rect4742"
           inkscape:connector-curvature="0"
           sodipodi:nodetypes="sssss" />
        <path
           sodipodi:nodetypes="sssss"
           inkscape:connector-curvature="0"
           id="path4747"
           d="m 28.503356,85.884596 c 0.737958,-2.019763 5.000717,-1.816895 4.499018,0.283482 -2.658341,11.129207 3.760476,18.260182 3.49628,21.151762 -0.197086,2.15708 -7.15696,2.25833 -7.995298,0.28348 -2.297023,-5.41101 -1.696871,-17.074453 0,-21.718724 z"
           style="opacity:1;fill:#f0f0f0;fill-opacity:1;stroke:none;stroke-width:4;stroke-linecap:round;stroke-linejoin:round;stroke-miterlimit:4;stroke-dasharray:none;stroke-opacity:1;paint-order:stroke fill markers" />
        <path
           inkscape:connector-curvature="0"
           style="opacity:1;fill:#000000;fill-opacity:0.45303865;stroke:none;stroke-width:15.11811066;stroke-linecap:round;stroke-linejoin:round;stroke-miterlimit:4;stroke-dasharray:none;stroke-opacity:1;paint-order:stroke fill markers"
           d="m 117.91211,317.5332 c -4.29722,-0.23853 -9.20266,1.54348 -10.65039,5.50586 -6.65786,18.22231 -9.012621,63.98418 0,85.21485 1.3451,3.16863 6.71561,4.95264 12.63672,5.40234 -0.27007,-0.3055 -0.51261,-0.62474 -0.69141,-0.9707 -11.03401,-21.34961 -12.18727,-69.0825 -6.70312,-88.53907 0.94903,-3.36696 4.28205,-5.46599 7.86328,-6.23046 -0.77396,-0.20571 -1.60122,-0.33542 -2.45508,-0.38282 z"
           transform="scale(0.26458333)"
           id="path4783" />
      </g>
    </g>
    <g
       id="g4704"
       style="stroke-width:4.97498226;stroke-miterlimit:4;stroke-dasharray:none"
       transform="matrix(0.83124766,-0.04899425,0.04567883,0.77499755,-8.6800096,173.94014)"
       inkscape:export-filename="D:\Projects\GodotProjects\wildjam-proj2\sprites\characters\cat\leg.png"
       inkscape:export-xdpi="158.5556"
       inkscape:export-ydpi="158.5556">
      <path
         sodipodi:nodetypes="sssss"
         inkscape:connector-curvature="0"
         id="path4698"
         d="m 28.503356,85.884596 c 0.737958,-2.019763 5.000717,-1.816895 4.499018,0.283482 -2.658341,11.129207 3.760476,18.260182 3.49628,21.151762 -0.197086,2.15708 -7.15696,2.25833 -7.995298,0.28348 -2.297023,-5.41101 -1.696871,-17.074453 0,-21.718724 z"
         style="opacity:1;fill:none;fill-opacity:1;stroke:#000000;stroke-width:4.97498226;stroke-linecap:round;stroke-linejoin:round;stroke-miterlimit:4;stroke-dasharray:none;stroke-opacity:1;paint-order:stroke fill markers" />
      <path
         style="opacity:1;fill:#f0f0f0;fill-opacity:1;stroke:none;stroke-width:4.97498226;stroke-linecap:round;stroke-linejoin:round;stroke-miterlimit:4;stroke-dasharray:none;stroke-opacity:1;paint-order:stroke fill markers"
         d="m 28.503356,85.884596 c 0.737958,-2.019763 5.000717,-1.816895 4.499018,0.283482 -2.658341,11.129207 3.760476,18.260182 3.49628,21.151762 -0.197086,2.15708 -7.15696,2.25833 -7.995298,0.28348 -2.297023,-5.41101 -1.696871,-17.074453 0,-21.718724 z"
         id="path4700"
         inkscape:connector-curvature="0"
         sodipodi:nodetypes="sssss" />
      <path
         id="path4702"
         transform="scale(0.26458333)"
         d="m 117.91211,317.5332 c -4.29722,-0.23853 -9.20266,1.54348 -10.65039,5.50586 -6.65786,18.22231 -9.012621,63.98418 0,85.21485 1.3451,3.16863 6.71561,4.95264 12.63672,5.40234 -0.27007,-0.3055 -0.51261,-0.62474 -0.69141,-0.9707 -11.03401,-21.34961 -12.18727,-69.0825 -6.70312,-88.53907 0.94903,-3.36696 4.28205,-5.46599 7.86328,-6.23046 -0.77396,-0.20571 -1.60122,-0.33542 -2.45508,-0.38282 z"
         style="opacity:1;fill:#000000;fill-opacity:0.45303865;stroke:none;stroke-width:18.80308533;stroke-linecap:round;stroke-linejoin:round;stroke-miterlimit:4;stroke-dasharray:none;stroke-opacity:1;paint-order:stroke fill markers"
         inkscape:connector-curvature="0" />
    </g>
    <g
       id="g4713"
       transform="translate(21.066529,129.26977)"
       inkscape:export-filename="D:\Projects\GodotProjects\wildjam-proj2\sprites\characters\cat\body.png"
       inkscape:export-xdpi="158.5556"
       inkscape:export-ydpi="158.5556">
      <path
         style="opacity:1;fill:#d8d8d8;fill-opacity:1;stroke:#000000;stroke-width:5;stroke-linecap:round;stroke-linejoin:round;stroke-miterlimit:4;stroke-dasharray:none;stroke-opacity:1;paint-order:stroke fill markers"
         d="m 35.381485,79.883273 c 4.189149,-3.161449 16.061415,-3.856142 20.75717,-1.565649 5.632726,2.747526 10.939901,23.388876 3.732122,26.050216 -6.763724,2.49738 -20.821198,3.26468 -22.800878,1.71979 -6.86677,-5.35865 -5.158528,-23.585547 -1.688414,-26.204357 z"
         id="path4709"
         inkscape:connector-curvature="0"
         sodipodi:nodetypes="sssss" />
      <path
         style="opacity:1;fill:#ffffff;fill-opacity:1;stroke:none;stroke-width:18.89763832;stroke-linecap:round;stroke-linejoin:round;stroke-miterlimit:4;stroke-dasharray:none;stroke-opacity:1;paint-order:stroke fill markers"
         d="m 183.35742,294.52148 c -3.05916,0.47202 -6.13299,0.90867 -9.22461,1.30079 -14.90413,6.38718 -22.71953,32.79174 -19.72656,53.5957 3.2784,22.78787 18.27847,30.21471 36.04883,27.6582 17.77036,-2.55657 31.58309,-14.12814 28.30469,-36.91601 -2.98601,-20.75551 -19.12102,-43.65019 -35.40235,-45.63868 z"
         transform="scale(0.26458333)"
         id="path4711"
         inkscape:connector-curvature="0" />
    </g>
    <g
       id="g4798"
       transform="translate(-5.9493871,119.37889)"
       inkscape:export-filename="D:\Projects\GodotProjects\wildjam-proj2\sprites\characters\cat\head.png"
       inkscape:export-xdpi="158.5556"
       inkscape:export-ydpi="158.5556">
      <g
         id="g4765">
        <g
           id="g4749">
          <g
             id="g4725"
             transform="translate(0.56696429,3.7797619)">
            <path
               sodipodi:nodetypes="ccc"
               inkscape:connector-curvature="0"
               id="path4715"
               d="M 65.101092,39.098411 C 63.010251,28.795187 63.56742,16.73668 49.98085,11.192099 c -6.138057,6.503892 -4.461697,15.34918 -2.727755,24.080535"
               style="fill:#d8d8d8;fill-opacity:1;stroke:#000000;stroke-width:2.70000005;stroke-linecap:butt;stroke-linejoin:round;stroke-miterlimit:4;stroke-dasharray:none;stroke-opacity:1" />
            <g
               style="stroke-width:1.13675761"
               transform="matrix(0.85858414,0.17468283,-0.17316837,0.866093,38.76432,-4.2936892)"
               id="g4723">
              <path
                 sodipodi:nodetypes="cccc"
                 inkscape:connector-curvature="0"
                 id="path4717"
                 d="m 19.251217,22.060689 c -1.852619,5.686937 0.369615,11.132613 2.17704,16.602849 4.568258,-2.888551 5.905907,-5.993883 7.200987,-9.10207 -2.501813,-4.88767 -5.763273,-6.869863 -9.378027,-7.500779 z"
                 style="fill:#ff6a6a;fill-opacity:1;stroke:#000000;stroke-width:1.93248808;stroke-linecap:round;stroke-linejoin:round;stroke-miterlimit:4;stroke-dasharray:none;stroke-opacity:1" />
              <path
                 inkscape:connector-curvature="0"
                 id="path4719"
                 d="m 19.651925,22.060669 c -1.852619,5.686936 0.369704,11.132884 2.177128,16.603121 0.708727,-0.448136 1.331926,-0.901835 1.897042,-1.359607 -2.043571,-4.841518 -3.93581,-9.703051 -2.845821,-14.968596 -0.404525,-0.110198 -0.813924,-0.202585 -1.228349,-0.274918 z"
                 style="fill:#dd4545;fill-opacity:1;stroke:none;stroke-width:1.93248808;stroke-linecap:round;stroke-linejoin:round;stroke-miterlimit:4;stroke-dasharray:none;stroke-opacity:1" />
              <path
                 style="fill:none;fill-opacity:1;stroke:#000000;stroke-width:1.93248808;stroke-linecap:round;stroke-linejoin:round;stroke-miterlimit:4;stroke-dasharray:none;stroke-opacity:1"
                 d="m 19.251217,22.060689 c -1.852619,5.686937 0.369615,11.132613 2.17704,16.602849 4.568258,-2.888551 5.905907,-5.993883 7.200987,-9.10207 -2.501813,-4.88767 -5.763273,-6.869863 -9.378027,-7.500779 z"
                 id="path4721"
                 inkscape:connector-curvature="0"
                 sodipodi:nodetypes="cccc" />
            </g>
          </g>
          <g
             id="g4747">
            <g
               id="g4737">
              <path
                 style="opacity:1;fill:#f0f0f0;fill-opacity:1;stroke:#000000;stroke-width:5;stroke-linecap:round;stroke-linejoin:round;stroke-miterlimit:4;stroke-dasharray:none;stroke-opacity:1;paint-order:stroke fill markers"
                 d="m 24.417785,34.779398 c 10.103252,-5.357107 28.995389,-6.975404 37.478961,-0.11103 9.043073,7.317086 16.150826,32.437954 6.70068,38.663449 C 57.276554,80.789696 25.278944,84.294325 17.97658,73.481778 10.670218,62.663311 17.179675,38.617304 24.417785,34.779398 Z"
                 id="path4727"
                 inkscape:connector-curvature="0"
                 sodipodi:nodetypes="sssss" />
              <g
                 id="g4735"
                 transform="matrix(1,0,0,0.93983405,0,4.8322097)"
                 style="stroke-width:1.03151226">
                <path
                   id="path4729"
                   transform="scale(0.26458333)"
                   d="m 74.900391,195.83203 c -0.964069,0.002 -1.940471,0.042 -2.927735,0.125 l -3.283203,12.12109 c 7.208961,-3.21187 14.761499,-6.27539 25.253906,-8.08007 -6.086091,-2.30574 -12.294485,-4.17866 -19.042968,-4.16602 z m 6.669921,16.98242 c -4.798224,0.0426 -9.596305,0.73674 -14.394531,1.83008 l -2.021484,13.38477 c 9.059758,-7.10012 19.881752,-10.23608 30.810547,-13.13086 -4.798226,-1.51637 -9.596307,-2.12661 -14.394532,-2.08399 z"
                   style="fill:#d8d8d8;fill-opacity:1;stroke:none;stroke-width:1.03151226px;stroke-linecap:butt;stroke-linejoin:miter;stroke-opacity:1"
                   inkscape:connector-curvature="0" />
                <path
                   id="path4731"
                   transform="scale(0.26458333)"
                   d="m 132.83594,112.36719 -10.10156,7.07031 c 5.73751,5.11497 7.26522,16.54304 9.08984,27.52734 5.45288,-14.96336 3.48778,-24.91388 1.01172,-34.59765 z m -13.89063,5.05078 -11.36328,9.84961 c 5.83722,6.7648 7.51194,18.158 10.10156,28.53515 4.53597,-16.4531 2.57061,-27.12708 1.26172,-38.38476 z m -10.60742,11.86914 -10.099609,11.61719 c 5.629199,7.48811 6.516709,20.66492 9.089839,31.82031 2.22496,-18.7274 1.35234,-30.48705 1.00977,-43.4375 z m -12.373046,14.90039 -7.828125,7.07031 c 4.029377,5.02611 5.46049,13.0924 7.576172,20.70899 1.201995,-9.4833 2.342334,-18.95448 0.251953,-27.7793 z"
                   style="fill:#d8d8d8;fill-opacity:1;stroke:none;stroke-width:1.03151226px;stroke-linecap:butt;stroke-linejoin:miter;stroke-opacity:1"
                   inkscape:connector-curvature="0" />
                <path
                   id="path4733"
                   transform="scale(0.26458333)"
                   d="m 170.39258,101.6875 c -28.15725,0.0978 -57.81941,7.29915 -78.105471,18.74414 -27.356636,15.43408 -51.958346,112.13433 -24.34375,155.64063 0.738342,1.16324 1.557127,2.27774 2.425782,3.35937 -11.00089,-56.00941 14.556464,-135.53525 42.435549,-150.42773 25.14088,-13.42978 61.92791,-21.86571 96.81445,-21.93946 -11.84357,-3.74444 -25.35067,-5.42515 -39.22656,-5.37695 z"
                   style="opacity:1;fill:#d8d8d8;fill-opacity:1;stroke:none;stroke-width:19.4931469;stroke-linecap:round;stroke-linejoin:round;stroke-miterlimit:4;stroke-dasharray:none;stroke-opacity:1;paint-order:stroke fill markers"
                   inkscape:connector-curvature="0" />
              </g>
            </g>
            <g
               style="stroke-width:1.14895141;stroke-miterlimit:4;stroke-dasharray:none"
               transform="matrix(1.3014078,0,0,1.3096817,-11.701012,-5.0317398)"
               id="g4745">
              <path
                 style="fill:none;stroke:#000000;stroke-width:1.14895141;stroke-linecap:round;stroke-linejoin:miter;stroke-miterlimit:4;stroke-dasharray:none;stroke-opacity:1;paint-order:stroke fill markers"
                 d="m 39.555889,26.523237 c 1.970149,1.512492 3.888332,3.232843 5.158143,7.546683"
                 id="path4739"
                 inkscape:connector-curvature="0"
                 sodipodi:nodetypes="cc" />
              <path
                 sodipodi:nodetypes="cc"
                 inkscape:connector-curvature="0"
                 id="path4741"
                 d="m 36.260596,27.022882 c 1.521867,0.909361 3.024474,1.970785 4.286775,4.929525"
                 style="fill:none;stroke:#000000;stroke-width:1.14895141;stroke-linecap:round;stroke-linejoin:miter;stroke-miterlimit:4;stroke-dasharray:none;stroke-opacity:1;paint-order:stroke fill markers" />
              <path
                 style="fill:none;stroke:#000000;stroke-width:1.14895141;stroke-linecap:round;stroke-linejoin:miter;stroke-miterlimit:4;stroke-dasharray:none;stroke-opacity:1;paint-order:stroke fill markers"
                 d="m 42.006891,26.354709 c 1.521867,0.909361 3.024474,1.970785 4.286775,4.929525"
                 id="path4743"
                 inkscape:connector-curvature="0"
                 sodipodi:nodetypes="cc" />
            </g>
          </g>
        </g>
        <g
           transform="translate(-0.78559597,3.542136)"
           id="g4763">
          <path
             style="fill:#d8d8d8;fill-opacity:1;stroke:none;stroke-width:2.70000005;stroke-linecap:round;stroke-linejoin:round;stroke-miterlimit:4;stroke-dasharray:none;stroke-opacity:1"
             d="M 34.773809,29.865328 C 30.733781,22.196381 25.550695,15.978238 15.024553,16.541666 12.79699,26.51241 13.508358,36.27323 18.331845,45.740327"
             id="path4751"
             inkscape:connector-curvature="0"
             sodipodi:nodetypes="ccc" />
          <g
             id="g4759">
            <path
               sodipodi:nodetypes="cccc"
               inkscape:connector-curvature="0"
               id="path4753"
               d="m 19.251217,22.060689 c -1.852619,5.686937 0.369615,11.132613 2.17704,16.602849 4.568258,-2.888551 5.905907,-5.993883 7.200987,-9.10207 -2.501813,-4.88767 -5.763273,-6.869863 -9.378027,-7.500779 z"
               style="fill:#ff6a6a;fill-opacity:1;stroke:#000000;stroke-width:1.70000005;stroke-linecap:round;stroke-linejoin:round;stroke-miterlimit:4;stroke-dasharray:none;stroke-opacity:1" />
            <path
               inkscape:connector-curvature="0"
               id="path4755"
               d="m 19.651925,22.060669 c -1.852619,5.686936 0.369704,11.132884 2.177128,16.603121 0.708727,-0.448136 1.331926,-0.901835 1.897042,-1.359607 -2.043571,-4.841518 -3.93581,-9.703051 -2.845821,-14.968596 -0.404525,-0.110198 -0.813924,-0.202585 -1.228349,-0.274918 z"
               style="fill:#dd4545;fill-opacity:1;stroke:none;stroke-width:1.70000005;stroke-linecap:round;stroke-linejoin:round;stroke-miterlimit:4;stroke-dasharray:none;stroke-opacity:1" />
            <path
               style="fill:none;fill-opacity:1;stroke:#000000;stroke-width:1.70000005;stroke-linecap:round;stroke-linejoin:round;stroke-miterlimit:4;stroke-dasharray:none;stroke-opacity:1"
               d="m 19.251217,22.060689 c -1.852619,5.686937 0.369615,11.132613 2.17704,16.602849 4.568258,-2.888551 5.905907,-5.993883 7.200987,-9.10207 -2.501813,-4.88767 -5.763273,-6.869863 -9.378027,-7.500779 z"
               id="path4757"
               inkscape:connector-curvature="0"
               sodipodi:nodetypes="cccc" />
          </g>
          <path
             sodipodi:nodetypes="ccc"
             inkscape:connector-curvature="0"
             id="path4761"
             d="M 34.773809,29.865328 C 30.733781,22.196381 25.550695,15.978238 15.024553,16.541666 12.79699,26.51241 13.508358,36.27323 18.331845,45.740327"
             style="display:inline;fill:none;stroke:#000000;stroke-width:2.70000005;stroke-linecap:round;stroke-linejoin:round;stroke-miterlimit:4;stroke-dasharray:none;stroke-opacity:1" />
        </g>
      </g>
      <g
         id="g4779"
         transform="matrix(0.79114202,0,0,0.78092783,10.573996,13.297221)"
         style="stroke-width:1.27223492">
        <g
           style="stroke-width:1.16179824"
           transform="matrix(1.1132973,-0.10508093,0.10076805,1.0676037,-8.3506951,4.1694123)"
           id="g4771">
          <circle
             style="opacity:1;fill:#000000;fill-opacity:1;stroke:none;stroke-width:3.13685536;stroke-linecap:round;stroke-linejoin:round;stroke-miterlimit:4;stroke-dasharray:none;stroke-opacity:1;paint-order:stroke fill markers"
             id="circle4767"
             cx="39.021351"
             cy="55.254711"
             r="2.5390606" />
          <path
             style="fill:none;stroke:#000000;stroke-width:1.74269736;stroke-linecap:round;stroke-linejoin:miter;stroke-miterlimit:4;stroke-dasharray:none;stroke-opacity:1"
             d="M 42.227518,52.516097 36.282906,49.641149"
             id="path4769"
             inkscape:connector-curvature="0" />
        </g>
        <g
           id="g4777"
           transform="matrix(-0.99557508,0.09396948,0.09396948,0.99557508,94.404763,-2.2226183)"
           style="stroke-width:1.27223492">
          <circle
             r="2.5390606"
             cy="55.254711"
             cx="39.021351"
             id="circle4773"
             style="opacity:1;fill:#000000;fill-opacity:1;stroke:none;stroke-width:3.43503451;stroke-linecap:round;stroke-linejoin:round;stroke-miterlimit:4;stroke-dasharray:none;stroke-opacity:1;paint-order:stroke fill markers" />
          <path
             inkscape:connector-curvature="0"
             id="path4775"
             d="M 42.227518,52.516097 36.282906,49.641149"
             style="fill:none;stroke:#000000;stroke-width:1.90835238;stroke-linecap:round;stroke-linejoin:miter;stroke-miterlimit:4;stroke-dasharray:none;stroke-opacity:1" />
        </g>
      </g>
      <g
         id="g4794"
         transform="rotate(-2.3521953,38.314719,68.953062)">
        <g
           style="stroke-width:2.13960242;stroke-miterlimit:4;stroke-dasharray:none"
           transform="matrix(-0.90548045,0.24063508,0.24144195,0.90080797,73.790436,-4.437829)"
           id="g4786">
          <path
             sodipodi:nodetypes="cc"
             inkscape:connector-curvature="0"
             id="path4781"
             d="m 53.053,64.742779 c 6.79383,-3.801205 16.645519,-6.351468 31.270535,-6.949006"
             style="fill:none;stroke:#000000;stroke-width:2.13960242;stroke-linecap:round;stroke-linejoin:miter;stroke-miterlimit:4;stroke-dasharray:none;stroke-opacity:1" />
          <path
             style="fill:none;stroke:#000000;stroke-width:2.13960242;stroke-linecap:round;stroke-linejoin:miter;stroke-miterlimit:4;stroke-dasharray:none;stroke-opacity:1"
             d="m 53.710308,67.659445 c 7.591607,-1.72418 17.762329,-1.383529 31.959056,2.18033"
             id="path4784"
             inkscape:connector-curvature="0"
             sodipodi:nodetypes="cc" />
        </g>
        <g
           id="g4792"
           transform="matrix(0.88697679,0.07956509,-0.08049695,0.87670887,20.908127,2.1133719)"
           style="stroke-width:2.25873327;stroke-miterlimit:4;stroke-dasharray:none">
          <path
             style="fill:none;stroke:#000000;stroke-width:2.25873327;stroke-linecap:round;stroke-linejoin:miter;stroke-miterlimit:4;stroke-dasharray:none;stroke-opacity:1"
             d="m 53.053,64.742779 c 6.79383,-3.801205 16.645519,-6.351468 31.270535,-6.949006"
             id="path4788"
             inkscape:connector-curvature="0"
             sodipodi:nodetypes="cc" />
          <path
             sodipodi:nodetypes="cc"
             inkscape:connector-curvature="0"
             id="path4790"
             d="m 53.710308,67.659445 c 7.591607,-1.72418 17.762329,-1.383529 31.959056,2.18033"
             style="fill:none;stroke:#000000;stroke-width:2.25873327;stroke-linecap:round;stroke-linejoin:miter;stroke-miterlimit:4;stroke-dasharray:none;stroke-opacity:1" />
        </g>
      </g>
      <path
         style="opacity:1;fill:#e05151;fill-opacity:1;stroke:#000000;stroke-width:3;stroke-linecap:round;stroke-linejoin:round;stroke-miterlimit:4;stroke-dasharray:none;stroke-opacity:1;paint-order:stroke fill markers"
         d="m 56.302569,68.321231 c 0.344094,1.308097 -0.621386,3.717427 -2.471661,4.183127 -1.850275,0.465701 -3.884683,-1.18858 -4.228777,-2.496677 -0.344093,-1.308097 1.132428,-1.774662 2.982703,-2.240363 1.850275,-0.4657 3.373642,-0.754185 3.717735,0.553913 z"
         id="path4796"
         inkscape:connector-curvature="0"
         sodipodi:nodetypes="sssss" />
    </g>
    <g
       transform="translate(5.6282018,126.11597)"
       style="stroke-width:4;stroke-miterlimit:4;stroke-dasharray:none"
       id="g4806"
       inkscape:export-filename="D:\Projects\GodotProjects\wildjam-proj2\sprites\characters\cat\leg.png"
       inkscape:export-xdpi="158.5556"
       inkscape:export-ydpi="158.5556">
      <path
         style="opacity:1;fill:none;fill-opacity:1;stroke:#000000;stroke-width:4;stroke-linecap:round;stroke-linejoin:round;stroke-miterlimit:4;stroke-dasharray:none;stroke-opacity:1;paint-order:stroke fill markers"
         d="m 28.503356,85.884596 c 0.737958,-2.019763 5.000717,-1.816895 4.499018,0.283482 -2.658341,11.129207 3.760476,18.260182 3.49628,21.151762 -0.197086,2.15708 -7.15696,2.25833 -7.995298,0.28348 -2.297023,-5.41101 -1.696871,-17.074453 0,-21.718724 z"
         id="path4800"
         inkscape:connector-curvature="0"
         sodipodi:nodetypes="sssss" />
      <path
         sodipodi:nodetypes="sssss"
         inkscape:connector-curvature="0"
         id="path4802"
         d="m 28.503356,85.884596 c 0.737958,-2.019763 5.000717,-1.816895 4.499018,0.283482 -2.658341,11.129207 3.760476,18.260182 3.49628,21.151762 -0.197086,2.15708 -7.15696,2.25833 -7.995298,0.28348 -2.297023,-5.41101 -1.696871,-17.074453 0,-21.718724 z"
         style="opacity:1;fill:#f0f0f0;fill-opacity:1;stroke:none;stroke-width:4;stroke-linecap:round;stroke-linejoin:round;stroke-miterlimit:4;stroke-dasharray:none;stroke-opacity:1;paint-order:stroke fill markers" />
      <path
         inkscape:connector-curvature="0"
         style="opacity:1;fill:#000000;fill-opacity:0.45303865;stroke:none;stroke-width:15.11811066;stroke-linecap:round;stroke-linejoin:round;stroke-miterlimit:4;stroke-dasharray:none;stroke-opacity:1;paint-order:stroke fill markers"
         d="m 117.91211,317.5332 c -4.29722,-0.23853 -9.20266,1.54348 -10.65039,5.50586 -6.65786,18.22231 -9.012621,63.98418 0,85.21485 1.3451,3.16863 6.71561,4.95264 12.63672,5.40234 -0.27007,-0.3055 -0.51261,-0.62474 -0.69141,-0.9707 -11.03401,-21.34961 -12.18727,-69.0825 -6.70312,-88.53907 0.94903,-3.36696 4.28205,-5.46599 7.86328,-6.23046 -0.77396,-0.20571 -1.60122,-0.33542 -2.45508,-0.38282 z"
         transform="scale(0.26458333)"
         id="path4804" />
    </g>
  </g>
</svg>
